<svg xmlns="http://www.w3.org/2000/svg" viewBox="0 0 32 32">
  <style>path{fill:#000}@media (prefers-color-scheme:dark){path{fill:#fff}}</style>
  <path d="M1.48 27.3C0.18 27.17 0.18 27 1.49 24.64C2.35 23.09 3.95 20.19 4.36 19.44C4.6 19 5.05 18.2 5.35 17.66S6.1 16.32 6.34 15.88S6.88 14.9 7.01 14.68S7.42 13.91 7.65 13.49S8.19 12.51 8.34 12.26C8.68 11.69 10.6 8.18 10.73 7.91C10.78 7.8 10.96 7.48 11.14 7.19S11.66 6.33 11.89 5.92C12.64 4.59 11.86 4.69 21.95 4.64L30.78 4.59L31.06 4.9C31.32 5.17 31.35 5.37 31.37 6.46C31.4 8.52 31.39 8.56 31.05 8.91L30.72 9.23H26.04H21.36V11.4V13.58L23.96 13.59C25.39 13.6 26.71 13.64 26.89 13.69C27.44 13.84 27.68 14.52 27.68 15.93C27.68 17.39 27.47 17.96 26.86 18.18C26.63 18.26 25.37 18.32 23.9 18.32H21.35L21.39 20.53L21.42 22.73L26.19 22.77L30.96 22.8L31.23 23.15C31.47 23.45 31.5 23.68 31.5 25.1C31.5 26.53 31.47 26.75 31.23 27.06L30.95 27.41H23.86C19.84 27.41 16.62 27.36 16.44 27.29C16.27 27.22 16.08 27.06 16.02 26.93C15.96 26.79 15.89 25.6 15.85 24.28L15.79 21.87L12.3 21.91L8.8 21.94L8.45 22.6C8.25 22.96 7.69 24.03 7.2 24.97S6.18 26.82 6.03 26.97C5.77 27.23 5.57 27.27 4.03 27.32C3.09 27.35 1.94 27.34 1.48 27.3ZM15.79 13.41C15.83 9.11 15.8 9 15 10.58C14.3 11.95 13.21 13.98 13.08 14.15C12.8 14.51 11.61 16.88 11.61 17.07C11.61 17.25 11.87 17.27 13.68 17.24L15.76 17.2L15.79 13.41Z"/>
</svg>
